<svg xmlns="http://www.w3.org/2000/svg" width="511.956" height="511.956" viewBox="0 0 526 526">
  <metadata><?xpacket begin="﻿" id="W5M0MpCehiHzreSzNTczkc9d"?>
<x:xmpmeta xmlns:x="adobe:ns:meta/" x:xmptk="Adobe XMP Core 5.6-c132 79.159284, 2016/04/19-13:13:40        ">
   <rdf:RDF xmlns:rdf="http://www.w3.org/1999/02/22-rdf-syntax-ns#">
      <rdf:Description rdf:about=""
            xmlns:xmp="http://ns.adobe.com/xap/1.0/">
         <xmp:CreatorTool>Adobe Photoshop CC 2015.5 (Macintosh)</xmp:CreatorTool>
      </rdf:Description>
   </rdf:RDF>
</x:xmpmeta>
                                                                                                    
                                                                                                    
                                                                                                    
                                                                                                    
                                                                                                    
                                                                                                    
                                                                                                    
                                                                                                    
                                                                                                    
                                                                                                    
                                                                                                    
                                                                                                    
                                                                                                    
                                                                                                    
                                                                                                    
                                                                                                    
                                                                                                    
                                                                                                    
                                                                                                    
                                                                                                    
                           
<?xpacket end="w"?></metadata>
<defs>
    <style>
      .cls-1 {
        fill: none;
        stroke: #f9f9f9;
        stroke-width: 20px;
      }

      .cls-2 {
        fill: #d9534f;
      }

      .cls-2, .cls-3 {
        fill-rule: evenodd;
      }

      .cls-3 {
        fill: #f9f9f9;
      }
    </style>
  </defs>
  <rect class="cls-1" x="36.938" y="41.688" width="450" height="450" rx="30" ry="30"/>
  <path class="cls-2" d="M166.647,258.013S23.915,129.341,96.66,87.261c41.959-24.273,69.274,6.79,69.274,6.79s27.315-31.063,69.273-6.79c72.744,42.081-68.56,170.753-68.56,170.753m-1.195-140.15c-2.766-3.429-10.652-10.347-14.619-13.029-3.937-2.662-20.3-13.432-41.55-1.143-6.408,3.707-9.493,8.081-10.316,14.622a30.017,30.017,0,0,0-.224,3.715c0,28.369,36.368,74.571,67.813,106.427,30.983-31.748,66.721-77.731,66.721-106.1a30.251,30.251,0,0,0-.238-3.857c-0.854-6.632-3.981-11.06-10.455-14.807-21.245-12.289-33.03-4.685-40.142.115-9.486,6.4-13.829,10.628-16.99,14.057"/>
  <path class="cls-3" d="M403.88,108.127c0,15.84-6.729,27.027-14.006,37.953-1.621,2.458.54,4.091,2.424,2.182,4.853-4.918,11.582-11.2,26.674-11.2,16.167,0,28.023,14.2,28.023,41.5,0,29.492-17.78,51.33-37.718,51.33-19.4,0-38-18.023-43.382-29.763-1.891-4.092-3.5-6.824-5.4-6.824-1.34,0-1.88,1.638-1.88,3.823,0,24.578,10.238,47.591,22.046,54.1,0.38,0.209,3.522,3.149-2.278,4.408-4.765,1.05-36.254,3.569-46.529-3-1.326-.849.039-2.679,1.347-3,16.386-4.069,19.757-41.033,19.757-55.228,0-2.185-.54-3.826-2.152-3.826-1.893,0-2.966,1.918-4.046,4.1-6.2,12.831-20.476,29.756-42.033,29.756s-37.725-25.118-37.725-49.142,12.936-43.683,31.259-43.683c10.776,0,22.1,7.1,29.095,11.469,1.891,1.091,3.237-1.094,1.351-2.462-11.586-8.464-15.359-18.291-15.359-33.031,0-9.831,9.7-30.579,44.187-30.579S403.88,90.652,403.88,108.127Z"/>
  <path class="cls-2" d="M357,267l90.015,90L357,447l-90.013-90L357,267m-58.448,89.785,58.509,58.5,58.51-58.5-58.51-58.5-58.509,58.5"/>
  <path class="cls-3" d="M204.313,306.114c-18.992-13.143-35.258-31.612-37.216-39.1-2.289,7.647-16.892,25.607-37.409,38.737-21.159,13.539-52.939,26.2-52.7,60.063,0.421,59.524,62.148,73.13,87.388,26.214-0.695,15.632-4.863,44.46-19.432,47.95-1.3.309-2.645,2.054-1.333,2.865,10.165,6.268,41.318,3.865,46.033,2.863,5.739-1.2,2.63-4,2.254-4.2-11.142-5.919-20.864-26.163-21.74-48.363,24.85,43.644,86.431,32.13,86.848-26.956C257.251,332.312,225.079,320.485,204.313,306.114Z"/>
</svg>
